<svg xmlns="http://www.w3.org/2000/svg" width="12" height="19"><g fill="none" fill-rule="evenodd"><path fill="#01034F" d="M5.913 9.611c-1.396 0-2.585-.47-3.567-1.41C1.364 7.261.872 6.135.872 4.824c0-1.336.492-2.474 1.474-3.414S4.517 0 5.913 0C7.31 0 8.498.47 9.481 1.41c.982.94 1.473 2.078 1.473 3.414 0 1.311-.49 2.437-1.473 3.377-.983.94-2.172 1.41-3.568 1.41z"/><path fill="#FFF" d="M5.913 2.45c-.672 0-1.253.228-1.745.686a2.218 2.218 0 0 0-.736 1.688c0 .643.245 1.194.736 1.652a2.474 2.474 0 0 0 1.745.686c.672 0 1.254-.229 1.745-.686.491-.458.737-1.009.737-1.652 0-.668-.246-1.23-.737-1.688a2.474 2.474 0 0 0-1.745-.687z"/><path fill="#01034F" d="M11.691 10.205c.181.52.181.91 0 1.169-.181.26-.62.6-1.318 1.02-.776.495-1.94.83-3.49 1.002l3.761 3.6a.954.954 0 0 1 .349.76c0 .31-.116.576-.349.799l-.116.111c-.233.223-.51.334-.834.334-.323 0-.588-.111-.795-.334-.517-.47-1.512-1.41-2.986-2.82l-2.947 2.82a1.14 1.14 0 0 1-.814.334 1.14 1.14 0 0 1-.814-.334l-.155-.111a1.132 1.132 0 0 1-.31-.798c0-.31.103-.563.31-.76a246.717 246.717 0 0 1 2.985-2.821l.776-.78c-1.551-.173-2.714-.507-3.49-1.001-.698-.421-1.137-.761-1.318-1.021-.181-.26-.181-.65 0-1.169a1.09 1.09 0 0 1 .756-.612c.349-.087.795.043 1.338.39.956.717 2.184 1.076 3.683 1.076l.62-.038c.389-.024.893-.123 1.513-.296.62-.174 1.137-.421 1.551-.743.543-.346.989-.476 1.338-.39.349.087.6.291.756.613z"/></g></svg>