<svg xmlns="http://www.w3.org/2000/svg" width="21" height="12"><path fill="#01034F" fill-rule="evenodd" d="M20.3 9.925c-.383-.515-1.026-1.193-1.928-2.033-.52-.516-.793-.882-.82-1.099-.028-.271.246-.8.82-1.586l.246-.244v-.041l.164-.163c0-.054.014-.081.041-.081.957-1.22 1.49-1.925 1.6-2.115.491-.841.67-1.41.532-1.709a.618.618 0 0 0-.246-.203 1.518 1.518 0 0 0-.45-.122 3.695 3.695 0 0 0-.513-.04c-.15 0-.335.006-.554.02a9.31 9.31 0 0 1-.451.02c-.164 0-.437-.014-.82-.04a7.778 7.778 0 0 0-.943-.021 1.941 1.941 0 0 0-.657.142c-.082.027-.17.102-.266.224a1.343 1.343 0 0 0-.205.346c-.041.108-.103.257-.185.447s-.136.312-.164.366c-.355.76-.67 1.356-.943 1.79 0 .027-.027.068-.082.122 0 .027-.027.068-.082.122a.94.94 0 0 1-.123.204l-.082.08v.042c-.027.027-.041.054-.041.08l-.082.082c-.027.027-.041.054-.041.082l-.041.04a.638.638 0 0 0-.123.163c-.438.597-.807.922-1.107.976-.028-.027-.055-.04-.082-.04v-.041h-.041l-.082-.081c0-.028-.014-.041-.041-.041l-.041-.04v-.041c-.028 0-.041-.014-.041-.041 0-.027-.014-.04-.041-.04v-.082h-.041v-.082l-.041-.04v-.082c0-.027-.014-.04-.041-.04v-.122c0-.027-.014-.041-.041-.041v-.447c-.028 0-.041-.014-.041-.041V4.23l.04-.041v-.61a.68.68 0 0 1 .042-.285c0-.163.02-.461.061-.895.041-.434.048-.8.02-1.098a2.141 2.141 0 0 0-.204-.773C11.919.176 11.004 0 9.39 0 7.997 0 7.163.258 6.889.773c.055.054.226.142.513.264.287.122.472.265.554.427.218.407.3 1.153.246 2.238v.122c0 1.274-.178 1.939-.533 1.993a.37.37 0 0 1-.267-.02.936.936 0 0 1-.287-.204 3.109 3.109 0 0 1-.451-.549 2.584 2.584 0 0 0-.185-.244.197.197 0 0 0-.04-.102.668.668 0 0 0-.083-.101l-.04-.041-.083-.163-.04-.04c-.055-.055-.083-.095-.083-.122-.027-.028-.04-.055-.04-.082a1.213 1.213 0 0 1-.124-.163C5.454 3.173 5.1 2.508 4.88 1.993a3.863 3.863 0 0 1-.246-.488 8.36 8.36 0 0 0-.287-.59C4.265.766 4.183.678 4.1.651 3.937.569 3.226.529 1.968.529.848.529.191.61 0 .773c0 .46.246 1.18.738 2.156.52 1.03.984 1.885 1.394 2.563v.04c.028.027.041.054.041.082a.787.787 0 0 1 .103.142.787.787 0 0 0 .103.142v.041c.027.027.04.054.04.081a.787.787 0 0 1 .103.143.787.787 0 0 0 .103.142c0 .027.027.068.082.122l.246.366c.027.027.068.088.123.183.054.095.095.17.123.224l.082.081c.109.163.177.258.205.285 0 .027.027.068.082.122.054.109.123.204.205.285 0 .027.027.068.082.122.11.163.205.285.287.366.793.976 1.592 1.756 2.399 2.339.806.583 1.852.942 3.137 1.078 1.476.136 2.31.014 2.502-.366.109-.163.17-.44.184-.834.014-.393.062-.732.144-1.017.082-.285.26-.44.533-.468a.764.764 0 0 1 .553.143c.178.122.376.318.595.59.219.27.342.42.37.447.82.949 1.626 1.491 2.419 1.627h.082c.382-.136.854-.17 1.414-.102a6.64 6.64 0 0 0 1.64 0c.534-.067.828-.278.882-.63.028-.326-.205-.773-.697-1.343z"/></svg>