<svg id="Слой_1" xmlns="http://www.w3.org/2000/svg" viewBox="0 0 64 64"><style>.st0{opacity:.3;fill:#f3cb8e;enable-background:new}</style><path class="st0" d="M32 0C14.3 0 0 14.3 0 32s14.3 32 32 32 32-14.3 32-32S49.7 0 32 0zm0 56C18.7 56 8 45.3 8 32S18.7 8 32 8c8.2 0 15.4 4.1 19.8 10.4 2.8 4 4.2 8.8 4.2 13.6 0 13.3-10.7 24-24 24z"/><path class="st0" d="M51.8 18.4C47.4 12.1 40.2 8 32 8 18.7 8 8 18.7 8 32s10.7 24 24 24 24-10.7 24-24c0-4.9-1.5-9.6-4.2-13.6z"/><linearGradient id="SVGID_1_" gradientUnits="userSpaceOnUse" x1="-50.878" y1="115.984" x2="-51.888" y2="116.984" gradientTransform="matrix(48 0 0 -48 2499.002 5623.84)"><stop offset="0" stop-color="#f3cb8e"/><stop offset="1" stop-color="#ea9a21"/></linearGradient><path d="M51.8 18.4C47.4 12.1 40.2 8 32 8 18.7 8 8 18.7 8 32s10.7 24 24 24 24-10.7 24-24c0-4.9-1.5-9.6-4.2-13.6z" fill="url(#SVGID_1_)"/></svg>