<svg xmlns="http://www.w3.org/2000/svg" width="15" height="24"><g fill="none" fill-rule="evenodd"><path fill="#FFF" d="M7.392 12.14c-1.745 0-3.232-.593-4.46-1.78-1.227-1.188-1.841-2.61-1.841-4.266 0-1.688.614-3.125 1.841-4.313C4.16.594 5.647 0 7.392 0s3.231.594 4.459 1.781c1.228 1.188 1.842 2.625 1.842 4.313 0 1.656-.614 3.078-1.842 4.265-1.228 1.188-2.714 1.782-4.46 1.782z"/><path fill="#4331AA" d="M7.392 3.094c-.84 0-1.568.289-2.181.867a2.815 2.815 0 0 0-.921 2.133c0 .812.307 1.508.92 2.086a3.075 3.075 0 0 0 2.182.867c.84 0 1.567-.29 2.18-.867.615-.578.922-1.274.922-2.086 0-.844-.307-1.555-.921-2.133a3.075 3.075 0 0 0-2.181-.867z"/><path fill="#FFF" d="M14.614 12.89c.226.657.226 1.15 0 1.477-.226.328-.776.758-1.648 1.29-.97.624-2.424 1.046-4.363 1.265l4.702 4.547c.29.25.436.57.436.96 0 .391-.145.727-.436 1.009l-.145.14a1.45 1.45 0 0 1-1.042.422 1.29 1.29 0 0 1-.994-.422c-.646-.594-1.89-1.781-3.732-3.562l-3.684 3.562c-.29.281-.63.422-1.018.422s-.727-.14-1.018-.422l-.194-.14a1.438 1.438 0 0 1-.387-1.008c0-.39.129-.711.387-.961a309.76 309.76 0 0 1 3.733-3.563l.969-.984c-1.939-.219-3.393-.64-4.362-1.266-.873-.531-1.422-.96-1.648-1.289-.227-.328-.227-.82 0-1.476a1.37 1.37 0 0 1 .945-.774c.436-.11.993.055 1.672.492 1.196.907 2.73 1.36 4.605 1.36l.775-.047c.485-.031 1.115-.156 1.89-.375.776-.219 1.422-.531 1.94-.938.678-.437 1.235-.601 1.672-.492.436.11.75.367.945.774z"/></g></svg>