<svg width="20" height="20" xmlns="http://www.w3.org/2000/svg"><path d="M10 18.828c-.982 0-1.81-.662-2.067-1.562h4.134A2.152 2.152 0 0 1 10 18.828zm-6.497-4.483h12.994a2.928 2.928 0 0 1 1.1 1.749H2.403a2.928 2.928 0 0 1 1.1-1.749zM10 2.344c2.954 0 5.435 2.305 5.649 5.247l.406 5.583H3.945l.406-5.583C4.565 4.649 7.046 2.344 10 2.344zm10 13.75h-1.214a4.097 4.097 0 0 0-1.537-2.648l-.431-5.94a6.81 6.81 0 0 0-2.153-4.495 6.807 6.807 0 0 0-4.08-1.814V0h-1.17v1.197a6.807 6.807 0 0 0-4.08 1.814 6.81 6.81 0 0 0-2.153 4.495l-.431 5.94a4.097 4.097 0 0 0-1.537 2.648H0v1.172h6.732A3.325 3.325 0 0 0 10 20c1.63 0 2.99-1.182 3.268-2.734H20v-1.172z" fill="#FA678F" fill-rule="evenodd"/></svg>