<svg width="153" height="152" xmlns="http://www.w3.org/2000/svg"><defs><linearGradient x1="0%" y1="0%" x2="102%" y2="101%" id="a"><stop stop-color="#3023AE" offset="0%"/><stop stop-color="#C86DD7" offset="100%"/></linearGradient></defs><g transform="matrix(-1 0 0 1 138 15)" fill="none" fill-rule="evenodd"><ellipse stroke="url(#a)" stroke-width="30" cx="61.697" cy="61" rx="61.079" ry="61"/><path d="M71.781 62.504l-9.363 9.406a1.522 1.522 0 0 1-2.157 0 1.54 1.54 0 0 1 0-2.166l8.284-8.323-8.283-8.322a1.537 1.537 0 0 1 0-2.167c.595-.6 1.56-.6 2.156 0l9.363 9.407c.298.299.446.69.446 1.082 0 .391-.148.785-.446 1.083z" fill="#000"/></g></svg>