<svg xmlns="http://www.w3.org/2000/svg" width="50" height="50"><g fill="none" fill-rule="evenodd"><circle cx="25" cy="25" r="25" fill="#4A90E2"/><path fill="#FFF" d="M34.375 13.26L9.25 23.051c-.814.318-.765 1.485.073 1.732l6.385 1.886 2.382 7.56a1.096 1.096 0 0 0 1.83.438l3.3-3.37 6.477 4.754c.793.582 1.921.15 2.123-.813l4.29-20.509a1.293 1.293 0 0 0-1.735-1.469zm-3.15 4.552l-11.67 10.32a.626.626 0 0 0-.208.4l-.45 3.994c-.015.13-.197.147-.235.022l-1.85-5.957a.627.627 0 0 1 .27-.719l13.78-8.547c.318-.197.642.24.363.487z"/></g></svg>