<svg width="46" height="46" xmlns="http://www.w3.org/2000/svg"><g fill="none" fill-rule="evenodd"><circle fill="#FFF" cx="23" cy="23" r="23"/><path d="M27.99 11H17.474C13.905 11 11 13.883 11 17.427v10.436c0 3.544 2.905 6.427 6.475 6.427H27.99c3.57 0 6.475-2.883 6.475-6.427V17.427c0-3.544-2.904-6.427-6.475-6.427zm4.392 16.863c0 2.405-1.97 4.361-4.393 4.361H17.475c-2.422 0-4.393-1.956-4.393-4.36V17.426c0-2.404 1.97-4.36 4.393-4.36H27.99c2.423 0 4.393 1.956 4.393 4.36v10.436z" fill="#01034F"/><path d="M22.806 17C19.605 17 17 19.636 17 22.876s2.605 5.877 5.806 5.877c3.202 0 5.807-2.636 5.807-5.877 0-3.24-2.605-5.876-5.807-5.876zm0 9.729C20.708 26.729 19 25 19 22.876s1.708-3.853 3.807-3.853c2.1 0 3.808 1.729 3.808 3.853 0 2.125-1.709 3.853-3.808 3.853zM27.645 16c-.17 0-.336.07-.455.191a.66.66 0 0 0 0 .924c.119.121.286.19.455.19a.647.647 0 0 0 .645-.652.66.66 0 0 0-.189-.462.644.644 0 0 0-.456-.191z" fill="#01034F"/></g></svg>