<svg width="46" height="46" xmlns="http://www.w3.org/2000/svg"><g fill="none" fill-rule="evenodd"><circle fill="#FFF" cx="23" cy="23" r="23"/><path d="M31.46 12.606L9.51 21.16c-.711.277-.668 1.297.064 1.513l5.578 1.647 2.081 6.606a.958.958 0 0 0 1.598.382l2.884-2.945 5.658 4.154a1.18 1.18 0 0 0 1.855-.71l3.747-17.917a1.13 1.13 0 0 0-1.515-1.284zm-2.752 3.977l-10.196 9.016a.547.547 0 0 0-.181.349l-.393 3.489c-.013.114-.172.13-.206.02l-1.615-5.205a.548.548 0 0 1 .235-.627l12.04-7.468c.276-.171.56.21.316.426z" fill="#01034F"/></g></svg>