<svg width="15" height="25" xmlns="http://www.w3.org/2000/svg"><g fill="none" fill-rule="evenodd"><path d="M7.392 12.646c-1.745 0-3.232-.618-4.46-1.855-1.227-1.237-1.841-2.718-1.841-4.443 0-1.758.614-3.256 1.841-4.493C4.16.618 5.647 0 7.392 0s3.231.618 4.459 1.855c1.228 1.237 1.842 2.735 1.842 4.493 0 1.725-.614 3.206-1.842 4.443-1.228 1.237-2.714 1.855-4.46 1.855z" fill="#01034F"/><path d="M7.392 3.223c-.84 0-1.568.3-2.181.903-.614.602-.921 1.343-.921 2.222 0 .846.307 1.57.92 2.173.614.602 1.342.903 2.182.903.84 0 1.567-.301 2.18-.903.615-.603.922-1.327.922-2.173 0-.88-.307-1.62-.921-2.222-.614-.602-1.341-.903-2.181-.903z" fill="#FFF"/><path d="M14.614 13.428c.226.683.226 1.196 0 1.538-.226.342-.776.79-1.648 1.343-.97.65-2.424 1.09-4.363 1.318l4.702 4.736c.29.26.436.594.436 1.001 0 .407-.145.757-.436 1.05l-.145.147c-.291.293-.639.439-1.042.439-.404 0-.736-.146-.994-.44-.646-.618-1.89-1.855-3.732-3.71l-3.684 3.71c-.29.294-.63.44-1.018.44a1.39 1.39 0 0 1-1.018-.44l-.194-.146a1.533 1.533 0 0 1-.387-1.05c0-.407.129-.74.387-1 1.551-1.563 2.795-2.8 3.733-3.712l.969-1.025c-1.939-.228-3.393-.667-4.362-1.318C.945 15.755.396 15.308.17 14.966c-.227-.342-.227-.855 0-1.538.194-.423.509-.692.945-.806.436-.114.993.057 1.672.513 1.196.944 2.73 1.416 4.605 1.416l.775-.049c.485-.033 1.115-.163 1.89-.39.776-.229 1.422-.554 1.94-.977.678-.456 1.235-.627 1.672-.513.436.114.75.383.945.806z" fill="#01034F"/></g></svg>