<svg width="27" height="15" xmlns="http://www.w3.org/2000/svg"><path d="M26.1 12.407c-.493-.644-1.319-1.492-2.479-2.543-.668-.644-1.02-1.101-1.055-1.372-.035-.34.317-1 1.055-1.984l.316-.305v-.05l.211-.204c0-.068.018-.102.053-.102 1.23-1.525 1.916-2.406 2.056-2.644.633-1.05.861-1.762.686-2.135a.79.79 0 0 0-.317-.254 1.995 1.995 0 0 0-.58-.153 4.884 4.884 0 0 0-.659-.05c-.193 0-.43.008-.712.025-.28.017-.474.025-.58.025-.21 0-.562-.017-1.054-.05a10.285 10.285 0 0 0-1.213-.026 2.556 2.556 0 0 0-.843.178c-.106.034-.22.127-.343.28a1.67 1.67 0 0 0-.264.432c-.052.135-.131.322-.237.559-.105.237-.176.39-.21.458-.458.949-.862 1.694-1.213 2.237 0 .034-.036.085-.106.152 0 .034-.035.085-.105.153a1.17 1.17 0 0 1-.159.254l-.105.102v.05c-.035.035-.053.068-.053.102l-.105.102c-.035.034-.053.068-.053.102l-.053.05a.8.8 0 0 0-.158.204c-.562.746-1.037 1.153-1.423 1.22-.036-.034-.07-.05-.106-.05v-.051h-.053l-.105-.102c0-.034-.018-.05-.053-.05l-.052-.052v-.05c-.036 0-.053-.018-.053-.051 0-.034-.018-.051-.053-.051V6.66h-.053v-.102l-.052-.05v-.102c0-.034-.018-.051-.053-.051v-.153c0-.034-.018-.05-.053-.05v-.56c-.035 0-.053-.017-.053-.05v-.255l.053-.05v-.763c0-.17.018-.289.053-.356 0-.204.026-.577.079-1.119.053-.542.062-1 .026-1.373a2.618 2.618 0 0 0-.263-.966C15.326.221 14.148 0 12.074 0 10.281 0 9.21.322 8.858.966c.07.068.29.178.659.33.369.153.606.331.712.535.28.508.386 1.44.316 2.796v.153c0 1.593-.228 2.423-.685 2.491a.487.487 0 0 1-.343-.025 1.205 1.205 0 0 1-.37-.254 3.93 3.93 0 0 1-.29-.306 8.007 8.007 0 0 1-.29-.38A3.242 3.242 0 0 0 8.332 6c0-.034-.018-.076-.053-.127a.84.84 0 0 0-.106-.127l-.052-.051-.106-.203-.052-.051c-.07-.068-.106-.119-.106-.153-.035-.034-.053-.068-.053-.102a1.522 1.522 0 0 1-.158-.203c-.633-1.017-1.09-1.847-1.37-2.491a4.78 4.78 0 0 1-.317-.61 10.33 10.33 0 0 0-.37-.738c-.105-.186-.21-.297-.315-.33C5.062.712 4.148.66 2.53.66 1.09.661.246.763 0 .966c0 .576.316 1.475.95 2.695a48.156 48.156 0 0 0 1.792 3.203v.051c.035.034.052.068.052.102a.91.91 0 0 1 .132.178.986.986 0 0 0 .132.178v.05c.035.035.053.069.053.102.035.034.079.094.132.178a.986.986 0 0 0 .131.178c0 .034.036.085.106.153l.316.458c.035.033.088.11.158.228.07.119.123.212.159.28l.105.102c.14.203.229.322.264.356 0 .034.035.084.105.152.07.136.158.254.264.356 0 .034.035.085.105.153.14.203.264.356.37.457 1.019 1.22 2.047 2.195 3.084 2.924 1.037.729 2.381 1.178 4.033 1.347 1.898.17 2.97.017 3.216-.457.141-.204.22-.551.238-1.043.017-.491.079-.915.184-1.27.106-.357.334-.552.686-.585.246-.034.483.025.711.177.229.153.484.399.765.738.281.339.44.525.475.56 1.054 1.186 2.091 1.864 3.11 2.033h.106c.492-.17 1.098-.212 1.819-.127.72.085 1.423.085 2.109 0 .685-.085 1.063-.348 1.133-.788.036-.407-.263-.966-.896-1.678z" fill="#01034F" fill-rule="evenodd"/></svg>