<svg xmlns="http://www.w3.org/2000/svg" width="53" height="48"><g fill="none" fill-rule="evenodd"><path fill="#01034F" d="M0 0h53v48H0z"/><path fill="#FFF" d="M36.68 32.892l-5.176-5.404a8.816 8.816 0 0 0 2.06-5.67c0-4.862-3.939-8.818-8.783-8.818C19.94 13 16 16.956 16 21.817c0 4.864 3.94 8.82 8.781 8.82a8.65 8.65 0 0 0 5.032-1.597l5.217 5.447a1.135 1.135 0 0 0 1.618.032c.457-.44.47-1.168.032-1.627zM24.749 15.3c3.539 0 6.418 2.837 6.418 6.322 0 3.486-2.88 6.323-6.418 6.323-3.537 0-6.416-2.837-6.416-6.323 0-3.485 2.879-6.322 6.416-6.322z"/></g></svg>