<svg width="152" height="152" xmlns="http://www.w3.org/2000/svg"><defs><linearGradient x1="0%" y1="0%" x2="102%" y2="101%" id="a"><stop stop-color="#3023AE" offset="0%"/><stop stop-color="#C86DD7" offset="100%"/></linearGradient></defs><g transform="translate(15 15)" fill="none" fill-rule="evenodd"><circle stroke="url(#a)" stroke-width="30" cx="61" cy="61" r="61"/><path d="M71.689 62.504l-9.351 9.406a1.518 1.518 0 0 1-2.155 0 1.54 1.54 0 0 1 0-2.166l8.274-8.323-8.273-8.322a1.538 1.538 0 0 1 0-2.167c.595-.6 1.56-.6 2.154 0l9.35 9.407c.298.299.446.69.446 1.082 0 .391-.148.785-.445 1.083z" fill="#000"/></g></svg>