<svg width="95" height="95" xmlns="http://www.w3.org/2000/svg"><g fill="none" fill-rule="evenodd"><circle fill="#4A90E2" cx="47.5" cy="47.5" r="47.5"/><path d="M68.079 25.173L20.114 43.864c-1.554.606-1.46 2.835.14 3.307l12.189 3.599 4.548 14.434c.475 1.507 2.386 1.964 3.492.835l6.301-6.435L59.15 68.68c1.513 1.111 3.668.285 4.052-1.551l8.19-39.152c.4-1.918-1.487-3.516-3.312-2.804zm-6.014 8.688L39.786 53.563a1.195 1.195 0 0 0-.396.763l-.858 7.625c-.028.249-.376.282-.45.043l-3.53-11.373c-.161-.52.05-1.084.513-1.371l26.31-16.318c.604-.375 1.224.457.69.93z" fill="#FFF"/></g></svg>